<svg id="visual" viewBox="0 0 900 600" width="900" height="600" xmlns="http://www.w3.org/2000/svg" xmlns:xlink="http://www.w3.org/1999/xlink" version="1.1"><g stroke-width="1" stroke-linejoin="bevel"><path d="M404 296L421 390L517 282Z" fill="#2a4365" stroke="#2a4365"></path><path d="M421 390L530 416L517 282Z" fill="#3c75ae" stroke="#3c75ae"></path><path d="M635 315L578 213L517 282Z" fill="#31537c" stroke="#31537c"></path><path d="M517 282L392 172L404 296Z" fill="#2e4b71" stroke="#2e4b71"></path><path d="M530 416L635 315L517 282Z" fill="#4299e1" stroke="#4299e1"></path><path d="M578 213L536 184L517 282Z" fill="#345b88" stroke="#345b88"></path><path d="M598 432L635 315L530 416Z" fill="#3c75ae" stroke="#3c75ae"></path><path d="M404 296L315 416L421 390Z" fill="#3e7eba" stroke="#3e7eba"></path><path d="M468 530L570 481L530 416Z" fill="#3c75ae" stroke="#3c75ae"></path><path d="M530 416L570 481L598 432Z" fill="#2e4b71" stroke="#2e4b71"></path><path d="M536 184L392 172L517 282Z" fill="#3a6ca1" stroke="#3a6ca1"></path><path d="M404 296L269 309L315 416Z" fill="#3a6ca1" stroke="#3a6ca1"></path><path d="M468 530L530 416L421 390Z" fill="#3c75ae" stroke="#3c75ae"></path><path d="M363 529L468 530L421 390Z" fill="#3a6ca1" stroke="#3a6ca1"></path><path d="M295 223L269 309L404 296Z" fill="#2e4b71" stroke="#2e4b71"></path><path d="M699 413L668 318L635 315Z" fill="#3e7eba" stroke="#3e7eba"></path><path d="M635 315L715 236L578 213Z" fill="#3a6ca1" stroke="#3a6ca1"></path><path d="M699 413L635 315L598 432Z" fill="#376395" stroke="#376395"></path><path d="M392 172L295 223L404 296Z" fill="#4299e1" stroke="#4299e1"></path><path d="M270 519L363 529L315 416Z" fill="#31537c" stroke="#31537c"></path><path d="M315 416L363 529L421 390Z" fill="#3e7eba" stroke="#3e7eba"></path><path d="M536 184L383 112L392 172Z" fill="#4299e1" stroke="#4299e1"></path><path d="M392 172L310 109L295 223Z" fill="#3c75ae" stroke="#3c75ae"></path><path d="M708 484L699 413L598 432Z" fill="#31537c" stroke="#31537c"></path><path d="M196 235L207 298L269 309Z" fill="#4087c7" stroke="#4087c7"></path><path d="M269 309L198 373L315 416Z" fill="#3c75ae" stroke="#3c75ae"></path><path d="M196 235L269 309L295 223Z" fill="#4087c7" stroke="#4087c7"></path><path d="M362 600L474 600L468 530Z" fill="#4087c7" stroke="#4087c7"></path><path d="M468 530L590 600L570 481Z" fill="#3a6ca1" stroke="#3a6ca1"></path><path d="M570 481L708 484L598 432Z" fill="#2e4b71" stroke="#2e4b71"></path><path d="M668 318L715 236L635 315Z" fill="#376395" stroke="#376395"></path><path d="M578 213L630 120L536 184Z" fill="#31537c" stroke="#31537c"></path><path d="M536 184L528 64L383 112Z" fill="#3a6ca1" stroke="#3a6ca1"></path><path d="M827 325L715 236L668 318Z" fill="#376395" stroke="#376395"></path><path d="M715 236L630 120L578 213Z" fill="#4299e1" stroke="#4299e1"></path><path d="M175 482L270 519L315 416Z" fill="#345b88" stroke="#345b88"></path><path d="M363 529L362 600L468 530Z" fill="#376395" stroke="#376395"></path><path d="M207 298L198 373L269 309Z" fill="#2e4b71" stroke="#2e4b71"></path><path d="M377 0L310 109L383 112Z" fill="#31537c" stroke="#31537c"></path><path d="M383 112L310 109L392 172Z" fill="#3a6ca1" stroke="#3a6ca1"></path><path d="M630 120L528 64L536 184Z" fill="#2a4365" stroke="#2a4365"></path><path d="M678 600L708 484L570 481Z" fill="#2a4365" stroke="#2a4365"></path><path d="M827 325L785 193L715 236Z" fill="#31537c" stroke="#31537c"></path><path d="M289 600L362 600L363 529Z" fill="#345b88" stroke="#345b88"></path><path d="M230 97L196 235L295 223Z" fill="#3e7eba" stroke="#3e7eba"></path><path d="M82 319L128 427L198 373Z" fill="#3c75ae" stroke="#3c75ae"></path><path d="M474 600L590 600L468 530Z" fill="#3a6ca1" stroke="#3a6ca1"></path><path d="M232 600L289 600L270 519Z" fill="#345b88" stroke="#345b88"></path><path d="M270 519L289 600L363 529Z" fill="#4190d4" stroke="#4190d4"></path><path d="M128 427L175 482L198 373Z" fill="#4299e1" stroke="#4299e1"></path><path d="M198 373L175 482L315 416Z" fill="#3e7eba" stroke="#3e7eba"></path><path d="M290 0L230 97L310 109Z" fill="#2a4365" stroke="#2a4365"></path><path d="M310 109L230 97L295 223Z" fill="#4087c7" stroke="#4087c7"></path><path d="M623 0L487 0L528 64Z" fill="#31537c" stroke="#31537c"></path><path d="M528 64L487 0L383 112Z" fill="#4190d4" stroke="#4190d4"></path><path d="M590 600L678 600L570 481Z" fill="#345b88" stroke="#345b88"></path><path d="M487 0L377 0L383 112Z" fill="#376395" stroke="#376395"></path><path d="M715 236L705 65L630 120Z" fill="#4299e1" stroke="#4299e1"></path><path d="M630 120L623 0L528 64Z" fill="#376395" stroke="#376395"></path><path d="M827 325L668 318L699 413Z" fill="#4299e1" stroke="#4299e1"></path><path d="M827 325L699 413L827 374Z" fill="#4087c7" stroke="#4087c7"></path><path d="M82 319L198 373L207 298Z" fill="#376395" stroke="#376395"></path><path d="M82 319L207 298L196 235Z" fill="#345b88" stroke="#345b88"></path><path d="M175 482L232 600L270 519Z" fill="#2e4b71" stroke="#2e4b71"></path><path d="M86 533L232 600L175 482Z" fill="#3c75ae" stroke="#3c75ae"></path><path d="M785 193L705 65L715 236Z" fill="#31537c" stroke="#31537c"></path><path d="M827 374L699 413L837 474Z" fill="#31537c" stroke="#31537c"></path><path d="M837 474L699 413L708 484Z" fill="#376395" stroke="#376395"></path><path d="M705 65L623 0L630 120Z" fill="#376395" stroke="#376395"></path><path d="M377 0L290 0L310 109Z" fill="#31537c" stroke="#31537c"></path><path d="M70 189L196 235L230 97Z" fill="#3a6ca1" stroke="#3a6ca1"></path><path d="M70 189L82 319L196 235Z" fill="#31537c" stroke="#31537c"></path><path d="M762 600L837 474L708 484Z" fill="#2e4b71" stroke="#2e4b71"></path><path d="M900 407L900 291L827 325Z" fill="#2e4b71" stroke="#2e4b71"></path><path d="M678 600L762 600L708 484Z" fill="#3a6ca1" stroke="#3a6ca1"></path><path d="M800 0L692 0L705 65Z" fill="#3a6ca1" stroke="#3a6ca1"></path><path d="M705 65L692 0L623 0Z" fill="#345b88" stroke="#345b88"></path><path d="M66 71L70 189L230 97Z" fill="#376395" stroke="#376395"></path><path d="M0 473L86 533L128 427Z" fill="#31537c" stroke="#31537c"></path><path d="M128 427L86 533L175 482Z" fill="#3a6ca1" stroke="#3a6ca1"></path><path d="M0 428L128 427L82 319Z" fill="#376395" stroke="#376395"></path><path d="M900 407L827 325L827 374Z" fill="#31537c" stroke="#31537c"></path><path d="M827 325L900 230L785 193Z" fill="#3a6ca1" stroke="#3a6ca1"></path><path d="M785 193L839 106L705 65Z" fill="#4190d4" stroke="#4190d4"></path><path d="M290 0L184 0L230 97Z" fill="#2e4b71" stroke="#2e4b71"></path><path d="M900 230L839 106L785 193Z" fill="#4190d4" stroke="#4190d4"></path><path d="M837 474L900 407L827 374Z" fill="#4190d4" stroke="#4190d4"></path><path d="M900 508L900 407L837 474Z" fill="#3a6ca1" stroke="#3a6ca1"></path><path d="M900 291L900 230L827 325Z" fill="#4087c7" stroke="#4087c7"></path><path d="M900 600L900 508L837 474Z" fill="#31537c" stroke="#31537c"></path><path d="M0 204L0 287L70 189Z" fill="#3e7eba" stroke="#3e7eba"></path><path d="M70 189L0 287L82 319Z" fill="#3a6ca1" stroke="#3a6ca1"></path><path d="M900 68L800 0L839 106Z" fill="#3e7eba" stroke="#3e7eba"></path><path d="M839 106L800 0L705 65Z" fill="#3e7eba" stroke="#3e7eba"></path><path d="M0 600L75 600L86 533Z" fill="#3a6ca1" stroke="#3a6ca1"></path><path d="M86 533L75 600L232 600Z" fill="#3c75ae" stroke="#3c75ae"></path><path d="M0 287L0 428L82 319Z" fill="#4299e1" stroke="#4299e1"></path><path d="M117 0L66 71L230 97Z" fill="#3c75ae" stroke="#3c75ae"></path><path d="M184 0L117 0L230 97Z" fill="#4190d4" stroke="#4190d4"></path><path d="M0 139L0 204L70 189Z" fill="#3e7eba" stroke="#3e7eba"></path><path d="M0 428L0 473L128 427Z" fill="#345b88" stroke="#345b88"></path><path d="M0 0L0 139L66 71Z" fill="#4299e1" stroke="#4299e1"></path><path d="M66 71L0 139L70 189Z" fill="#3c75ae" stroke="#3c75ae"></path><path d="M900 230L900 68L839 106Z" fill="#2a4365" stroke="#2a4365"></path><path d="M762 600L900 600L837 474Z" fill="#376395" stroke="#376395"></path><path d="M0 473L0 600L86 533Z" fill="#4190d4" stroke="#4190d4"></path><path d="M900 68L900 0L800 0Z" fill="#345b88" stroke="#345b88"></path><path d="M117 0L0 0L66 71Z" fill="#3c75ae" stroke="#3c75ae"></path></g></svg>