<svg width="1068" height="608" viewBox="0 0 1068 608" fill="none" xmlns="http://www.w3.org/2000/svg">
<path d="M611.746 225.581V525.289L511.843 607.818H0.746002V293.631L149.876 225.581H611.746Z" fill="#2C5282"/>
<path opacity="0.1" d="M611.746 225.581V226.782L575.882 250.788L511.843 293.631H0.746002L149.876 225.581H611.746Z" fill="black"/>
<path opacity="0.1" d="M611.746 225.581V525.289L511.843 607.818L512.567 292.907L575.882 250.788L611.167 225.581H611.746Z" fill="black"/>
<path d="M477.094 266.845H165.803L188.969 253.814H487.23L477.094 266.845Z" fill="black"/>
<path d="M411.272 219.384C411.272 219.384 411.723 224.351 412.627 224.803C413.53 225.255 420.304 236.545 412.627 238.803C404.949 241.061 400.433 240.158 398.627 241.061C396.82 241.964 365.207 243.771 364.756 238.803C364.304 233.835 380.111 232.932 380.111 232.932C380.111 232.932 394.562 223.448 396.82 218.48C399.078 213.513 411.272 219.384 411.272 219.384Z" fill="black"/>
<path d="M469.488 261.199L344.541 0.828003L135.62 101.085L212.456 261.199H469.488Z" fill="#F2F2F2"/>
<path d="M302.259 103.03L191.294 156.28L194.599 163.167L305.564 109.917L302.259 103.03Z" fill="#2C5282"/>
<path d="M331.638 164.252L220.673 217.502L223.978 224.389L334.944 171.139L331.638 164.252Z" fill="#2C5282"/>
<path d="M351.82 67.0068L324.27 80.2275L337.49 107.778L365.04 94.5569L351.82 67.0068Z" fill="#2C5282"/>
<path d="M381.199 128.229L353.649 141.45L366.87 169L394.42 155.779L381.199 128.229Z" fill="#2C5282"/>
<path d="M383.097 109.146L371.751 141.428L356.457 136.053L354.364 142.007L375.593 149.468L389.052 111.239L383.097 109.146Z" fill="#57B894"/>
<path d="M712.56 450.8L727.08 403.04H748.92L725.16 470H699.84L676.08 403.04H698.04L712.56 450.8ZM788.037 470.96C781.477 470.96 775.557 469.56 770.277 466.76C765.077 463.96 760.957 459.96 757.917 454.76C754.957 449.56 753.477 443.48 753.477 436.52C753.477 429.64 754.997 423.6 758.037 418.4C761.077 413.12 765.237 409.08 770.517 406.28C775.797 403.48 781.717 402.08 788.277 402.08C794.837 402.08 800.757 403.48 806.037 406.28C811.317 409.08 815.477 413.12 818.517 418.4C821.557 423.6 823.077 429.64 823.077 436.52C823.077 443.4 821.517 449.48 818.397 454.76C815.357 459.96 811.157 463.96 805.797 466.76C800.517 469.56 794.597 470.96 788.037 470.96ZM788.037 453.2C791.957 453.2 795.277 451.76 797.997 448.88C800.797 446 802.197 441.88 802.197 436.52C802.197 431.16 800.837 427.04 798.117 424.16C795.477 421.28 792.197 419.84 788.277 419.84C784.277 419.84 780.957 421.28 778.317 424.16C775.677 426.96 774.357 431.08 774.357 436.52C774.357 441.88 775.637 446 778.197 448.88C780.837 451.76 784.117 453.2 788.037 453.2ZM871.283 452.6V470H860.843C853.403 470 847.603 468.2 843.443 464.6C839.283 460.92 837.203 454.96 837.203 446.72V420.08H829.043V403.04H837.203V386.72H857.723V403.04H871.163V420.08H857.723V446.96C857.723 448.96 858.203 450.4 859.163 451.28C860.123 452.16 861.723 452.6 863.963 452.6H871.283ZM945.833 435.44C945.833 437.36 945.713 439.36 945.473 441.44H899.033C899.353 445.6 900.673 448.8 902.993 451.04C905.393 453.2 908.313 454.28 911.753 454.28C916.873 454.28 920.433 452.12 922.433 447.8H944.273C943.153 452.2 941.113 456.16 938.153 459.68C935.273 463.2 931.633 465.96 927.233 467.96C922.833 469.96 917.913 470.96 912.473 470.96C905.913 470.96 900.073 469.56 894.953 466.76C889.833 463.96 885.833 459.96 882.953 454.76C880.073 449.56 878.633 443.48 878.633 436.52C878.633 429.56 880.033 423.48 882.833 418.28C885.713 413.08 889.713 409.08 894.833 406.28C899.953 403.48 905.833 402.08 912.473 402.08C918.953 402.08 924.713 403.44 929.753 406.16C934.793 408.88 938.713 412.76 941.513 417.8C944.393 422.84 945.833 428.72 945.833 435.44ZM924.833 430.04C924.833 426.52 923.633 423.72 921.233 421.64C918.833 419.56 915.833 418.52 912.233 418.52C908.793 418.52 905.873 419.52 903.473 421.52C901.153 423.52 899.713 426.36 899.153 430.04H924.833ZM966.259 470.96C962.659 470.96 959.699 469.92 957.379 467.84C955.139 465.68 954.019 463.04 954.019 459.92C954.019 456.72 955.139 454.04 957.379 451.88C959.699 449.72 962.659 448.64 966.259 448.64C969.779 448.64 972.659 449.72 974.899 451.88C977.219 454.04 978.379 456.72 978.379 459.92C978.379 463.04 977.219 465.68 974.899 467.84C972.659 469.92 969.779 470.96 966.259 470.96ZM1000.85 396.08C997.246 396.08 994.286 395.04 991.966 392.96C989.726 390.8 988.606 388.16 988.606 385.04C988.606 381.84 989.726 379.2 991.966 377.12C994.286 374.96 997.246 373.88 1000.85 373.88C1004.37 373.88 1007.25 374.96 1009.49 377.12C1011.81 379.2 1012.97 381.84 1012.97 385.04C1012.97 388.16 1011.81 390.8 1009.49 392.96C1007.25 395.04 1004.37 396.08 1000.85 396.08ZM1011.05 403.04V470H990.526V403.04H1011.05ZM1063.24 452.6V470H1052.8C1045.36 470 1039.56 468.2 1035.4 464.6C1031.24 460.92 1029.16 454.96 1029.16 446.72V420.08H1021V403.04H1029.16V386.72H1049.68V403.04H1063.12V420.08H1049.68V446.96C1049.68 448.96 1050.16 450.4 1051.12 451.28C1052.08 452.16 1053.68 452.6 1055.92 452.6H1063.24Z" fill="black"/>
</svg>
