<?xml version="1.0" standalone="no"?>
<!DOCTYPE svg PUBLIC "-//W3C//DTD SVG 20010904//EN"
 "http://www.w3.org/TR/2001/REC-SVG-20010904/DTD/svg10.dtd">
<svg version="1.0" xmlns="http://www.w3.org/2000/svg"
 width="612.000000pt" height="612.000000pt" viewBox="0 0 612.000000 612.000000"
 preserveAspectRatio="xMidYMid meet">
<metadata>
Created by potrace 1.14, written by Peter Selinger 2001-2017
</metadata>
<g transform="translate(0.000000,612.000000) scale(0.100000,-0.100000)"
fill="#000000" stroke="none">
<path d="M3340 6042 c-53 -26 -163 -79 -245 -119 -83 -39 -226 -108 -320 -153
-93 -45 -215 -104 -270 -130 -55 -26 -163 -78 -240 -115 -77 -37 -189 -91
-250 -120 -60 -29 -171 -82 -245 -118 -74 -36 -197 -94 -272 -131 -76 -36
-138 -67 -138 -69 0 -4 64 -140 200 -422 34 -71 84 -175 110 -230 26 -55 80
-167 120 -250 111 -232 160 -334 160 -338 0 -2 -101 -3 -225 -3 -212 1 -228 0
-272 -21 -27 -12 -93 -43 -148 -68 -55 -26 -131 -60 -170 -77 -38 -17 -117
-53 -174 -79 -57 -27 -105 -49 -106 -49 -2 0 -43 -19 -92 -42 -48 -23 -92 -43
-98 -44 -5 -1 -63 -27 -128 -58 -65 -31 -120 -56 -121 -56 -2 0 -48 -21 -102
-46 -55 -25 -128 -59 -163 -76 -35 -16 -81 -36 -102 -45 -30 -11 -39 -21 -40
-39 0 -13 0 -715 0 -1559 0 -844 0 -1541 0 -1549 1 -11 401 -13 2557 -13
l2556 0 32 27 c37 33 707 586 857 708 l106 87 0 1497 c0 824 -3 1498 -6 1499
-3 1 -361 2 -796 3 l-789 1 -28 55 c-28 56 -169 348 -251 520 -62 130 -160
336 -244 510 -75 156 -145 300 -228 475 -29 61 -89 184 -132 275 -44 91 -106
220 -138 288 -32 67 -61 122 -64 121 -3 0 -49 -21 -101 -47z"/>
</g>
</svg>
